<?xml version="1.0" encoding="UTF-8" standalone="no"?>
<svg
   width="24"
   height="24"
   fill="none"
   viewBox="0 0 23.999999 24"
   version="1.1"
   id="svg1"
   sodipodi:docname="pluginIcon_dark.svg"
   xml:space="preserve"
   inkscape:version="1.4.2 (ebf0e940d0, 2025-05-08)"
   xmlns:inkscape="http://www.inkscape.org/namespaces/inkscape"
   xmlns:sodipodi="http://sodipodi.sourceforge.net/DTD/sodipodi-0.dtd"
   xmlns="http://www.w3.org/2000/svg"
   xmlns:svg="http://www.w3.org/2000/svg"><defs
     id="defs1" /><sodipodi:namedview
     id="namedview1"
     pagecolor="#ffffff"
     bordercolor="#000000"
     borderopacity="0.25"
     inkscape:showpageshadow="2"
     inkscape:pageopacity="0.0"
     inkscape:pagecheckerboard="0"
     inkscape:deskcolor="#d1d1d1"
     inkscape:zoom="14.805048"
     inkscape:cx="16.683499"
     inkscape:cy="9.5237785"
     inkscape:window-width="1440"
     inkscape:window-height="1583"
     inkscape:window-x="20"
     inkscape:window-y="20"
     inkscape:window-maximized="0"
     inkscape:current-layer="svg1" /><g
     id="g2"><rect
       style="fill:#45322b;fill-opacity:1;stroke:#c77d55;stroke-width:1;stroke-linecap:square;stroke-linejoin:round;stroke-miterlimit:5.9;stroke-dasharray:none;stroke-opacity:1;paint-order:fill markers stroke"
       id="rect2"
       width="21.781986"
       height="11.960065"
       x="1.1090069"
       y="6.0199671"
       rx="0.5"
       ry="0.5" /><path
       fill="#e66d17"
       d="m 2.5637091,12.458443 q 0,-0.67 0.13,-1.32 0.12,-0.64 0.44,-1.16 0.32,-0.51 0.9,-0.82 0.57,-0.3 1.46,-0.3 0.19,0 0.42,0.02 0.23,0.01 0.38,0.05 v 0.82 q -0.33,-0.1 -0.75,-0.1 -0.77,0 -1.2,0.29 -0.43,0.3 -0.62,0.8 -0.18,0.51 -0.21,1.16 h 0.05 q 0.18,-0.31 0.52,-0.52 0.34,-0.22 0.89,-0.22 0.81,0 1.29,0.5 0.48,0.5 0.48,1.41 0,0.97 -0.55,1.53 -0.54,0.56 -1.47,0.56 -0.61,0 -1.1,-0.29 -0.49,-0.3 -0.77,-0.9 -0.29,-0.6 -0.29,-1.51 z m 2.14,1.89 q 0.48,0 0.77,-0.31 0.3,-0.31 0.3,-0.97 0,-0.52 -0.26,-0.83 -0.26,-0.3 -0.78,-0.3 -0.35,0 -0.62,0.15 -0.26,0.15 -0.4,0.38 -0.15,0.23 -0.15,0.47 0,0.33 0.13,0.65 0.12,0.33 0.38,0.54 0.25,0.22 0.63,0.22 z m 4.86,-3.11 q 0.8799999,0 1.4399999,0.48 0.56,0.47 0.56,1.35 0,0.98 -0.62,1.54 -0.61,0.55 -1.7499999,0.55 -0.48,0 -0.9,-0.08 -0.42,-0.09 -0.72,-0.25 v -0.89 q 0.31,0.17 0.76,0.28 0.44,0.11 0.84,0.11 0.64,0 1.0099999,-0.28 0.37,-0.29 0.37,-0.89 0,-0.53 -0.34,-0.81 -0.3399999,-0.29 -1.0599999,-0.29 -0.25,0 -0.53,0.04 -0.29,0.05 -0.48,0.1 l -0.43,-0.26 0.23,-3 h 3.1899999 v 0.87 H 8.8137091 l -0.13,1.53 q 0.14,-0.03 0.36,-0.07 0.21,-0.03 0.52,-0.03 z"
       id="path1"
       style="fill:#c77d55;fill-opacity:1" /><path
       fill="#e66d17"
       d="m 16.542492,11.99666 q 0,0.99 -0.2,1.68 -0.21,0.7 -0.66,1.07 -0.46,0.37 -1.21,0.37 -1.05,0 -1.55,-0.82 -0.5,-0.82 -0.5,-2.3 0,-0.97 0.2,-1.67 0.2,-0.71 0.65,-1.08 0.45,-0.37 1.2,-0.37 1.06,0 1.57,0.82 0.5,0.83 0.5,2.3 z m -3.14,0 q 0,1.16 0.24,1.73 0.24,0.58 0.83,0.58 0.59,0 0.84,-0.57 0.24,-0.58 0.24,-1.74 0,-1.14 -0.24,-1.73 -0.24,-0.58 -0.84,-0.58 -0.6,0 -0.83,0.58 -0.24,0.59 -0.24,1.73 z m 8,3.04 h -4.11 v -0.73 l 1.57,-1.6 q 0.46,-0.46 0.75,-0.8 0.3,-0.34 0.44,-0.64 0.15,-0.31 0.15,-0.66 0,-0.44 -0.26,-0.67 -0.25,-0.22 -0.66,-0.22 -0.4,0 -0.73,0.15 -0.34,0.16 -0.69,0.44 l -0.54,-0.64 q 0.37,-0.32 0.85,-0.55 0.47,-0.23 1.15,-0.23 0.86,0 1.37,0.45 0.5,0.45 0.5,1.17 0,0.5 -0.2,0.91 -0.19,0.41 -0.55,0.82 -0.36,0.41 -0.86,0.87 l -1.05,1.03 v 0.05 h 2.87 z"
       id="path1-1"
       style="fill:#c77d55;fill-opacity:1" /><path
       style="fill:#000000;fill-opacity:0;stroke:#c77d55;stroke-width:1;stroke-linejoin:round;stroke-miterlimit:5.9;stroke-dasharray:none;stroke-opacity:1;paint-order:fill markers stroke"
       d="m 3.545115,20.521479 v -2.09388"
       id="path2" /><path
       style="fill:#000000;fill-opacity:0;stroke:#c77d55;stroke-width:1;stroke-linejoin:round;stroke-miterlimit:5.9;stroke-dasharray:none;stroke-opacity:1;paint-order:fill markers stroke"
       d="m 5.658836,20.521479 v -2.09388"
       id="path2-2" /><path
       style="fill:#000000;fill-opacity:0;stroke:#c77d55;stroke-width:1;stroke-linejoin:round;stroke-miterlimit:5.9;stroke-dasharray:none;stroke-opacity:1;paint-order:fill markers stroke"
       d="m 7.772556,20.521479 v -2.09388"
       id="path2-7" /><path
       style="fill:#000000;fill-opacity:0;stroke:#c77d55;stroke-width:1;stroke-linejoin:round;stroke-miterlimit:5.9;stroke-dasharray:none;stroke-opacity:1;paint-order:fill markers stroke"
       d="m 9.886277,20.521479 v -2.09388"
       id="path2-2-9" /><path
       style="fill:#000000;fill-opacity:0;stroke:#c77d55;stroke-width:1;stroke-linejoin:round;stroke-miterlimit:5.9;stroke-dasharray:none;stroke-opacity:1;paint-order:fill markers stroke"
       d="m 11.999998,20.521479 v -2.09388"
       id="path2-3" /><path
       style="fill:#000000;fill-opacity:0;stroke:#c77d55;stroke-width:1;stroke-linejoin:round;stroke-miterlimit:5.9;stroke-dasharray:none;stroke-opacity:1;paint-order:fill markers stroke"
       d="m 14.113719,20.521479 v -2.09388"
       id="path2-2-7" /><path
       style="fill:#000000;fill-opacity:0;stroke:#c77d55;stroke-width:1;stroke-linejoin:round;stroke-miterlimit:5.9;stroke-dasharray:none;stroke-opacity:1;paint-order:fill markers stroke"
       d="m 16.227439,20.521479 v -2.09388"
       id="path2-28" /><path
       style="fill:#000000;fill-opacity:0;stroke:#c77d55;stroke-width:1;stroke-linejoin:round;stroke-miterlimit:5.9;stroke-dasharray:none;stroke-opacity:1;paint-order:fill markers stroke"
       d="m 18.34116,20.521479 v -2.09388"
       id="path2-2-97" /><path
       style="fill:#000000;fill-opacity:0;stroke:#c77d55;stroke-width:1;stroke-linejoin:round;stroke-miterlimit:5.9;stroke-dasharray:none;stroke-opacity:1;paint-order:fill markers stroke"
       d="m 20.454881,20.521479 v -2.09388"
       id="path2-2-97-2" /><path
       style="fill:#c77d55;fill-opacity:1;stroke:#c77d55;stroke-width:1;stroke-linejoin:round;stroke-miterlimit:5.9;stroke-dasharray:none;stroke-opacity:1;paint-order:fill markers stroke"
       d="M 3.545115,5.5724014 V 3.478521"
       id="path2-5" /><path
       style="fill:#c77d55;fill-opacity:1;stroke:#c77d55;stroke-width:1;stroke-linejoin:round;stroke-miterlimit:5.9;stroke-dasharray:none;stroke-opacity:1;paint-order:fill markers stroke"
       d="M 5.658836,5.5724014 V 3.478521"
       id="path2-2-0" /><path
       style="fill:#c77d55;fill-opacity:1;stroke:#c77d55;stroke-width:1;stroke-linejoin:round;stroke-miterlimit:5.9;stroke-dasharray:none;stroke-opacity:1;paint-order:fill markers stroke"
       d="M 7.772556,5.5724014 V 3.478521"
       id="path2-7-3" /><path
       style="fill:#c77d55;fill-opacity:1;stroke:#c77d55;stroke-width:1;stroke-linejoin:round;stroke-miterlimit:5.9;stroke-dasharray:none;stroke-opacity:1;paint-order:fill markers stroke"
       d="M 9.886277,5.5724014 V 3.478521"
       id="path2-2-9-6" /><path
       style="fill:#c77d55;fill-opacity:1;stroke:#c77d55;stroke-width:1;stroke-linejoin:round;stroke-miterlimit:5.9;stroke-dasharray:none;stroke-opacity:1;paint-order:fill markers stroke"
       d="M 11.999998,5.5724014 V 3.478521"
       id="path2-3-1" /><path
       style="fill:#c77d55;fill-opacity:1;stroke:#c77d55;stroke-width:1;stroke-linejoin:round;stroke-miterlimit:5.9;stroke-dasharray:none;stroke-opacity:1;paint-order:fill markers stroke"
       d="M 14.113719,5.5724014 V 3.478521"
       id="path2-2-7-0" /><path
       style="fill:#c77d55;fill-opacity:1;stroke:#c77d55;stroke-width:1;stroke-linejoin:round;stroke-miterlimit:5.9;stroke-dasharray:none;stroke-opacity:1;paint-order:fill markers stroke"
       d="M 16.227439,5.5724014 V 3.478521"
       id="path2-28-6" /><path
       style="fill:#c77d55;fill-opacity:1;stroke:#c77d55;stroke-width:1;stroke-linejoin:round;stroke-miterlimit:5.9;stroke-dasharray:none;stroke-opacity:1;paint-order:fill markers stroke"
       d="M 18.34116,5.5724014 V 3.478521"
       id="path2-2-97-3" /><path
       style="fill:#c77d55;fill-opacity:1;stroke:#c77d55;stroke-width:1;stroke-linejoin:round;stroke-miterlimit:5.9;stroke-dasharray:none;stroke-opacity:1;paint-order:fill markers stroke"
       d="M 20.454881,5.5724014 V 3.478521"
       id="path2-2-97-2-2" /><circle
       style="fill:#c77d55;fill-opacity:1;stroke:none;stroke-width:5;stroke-linecap:butt;stroke-linejoin:bevel;stroke-miterlimit:5.9;stroke-dasharray:none;stroke-opacity:1;paint-order:normal"
       id="path3"
       cx="1.5880604"
       cy="12.070679"
       r="0.5" /></g></svg>
