<?xml version="1.0" encoding="UTF-8"?>
<svg width="40" height="40" version="1.1" viewBox="0 0 40 40" xmlns="http://www.w3.org/2000/svg" xmlns:cc="http://creativecommons.org/ns#" xmlns:dc="http://purl.org/dc/elements/1.1/" xmlns:rdf="http://www.w3.org/1999/02/22-rdf-syntax-ns#" xmlns:xlink="http://www.w3.org/1999/xlink">
 <metadata>
  <rdf:RDF>
   <cc:Work rdf:about="">
    <dc:format>image/svg+xml</dc:format>
    <dc:type rdf:resource="http://purl.org/dc/dcmitype/StillImage"/>
    <dc:title/>
   </cc:Work>
  </rdf:RDF>
 </metadata>
 <defs>
  <polygon id="markdownsupport-a" points="0 0 36 0 36 22 0 22"/>
 </defs>
 <g transform="translate(2 9)" fill-rule="evenodd">
  <mask id="markdownsupport-b" fill="#fff">
   <use xlink:href="#markdownsupport-a"/>
  </mask>
  <g>
   <path d="m17.975 20.279c5.101 0 10.201-7e-3 15.302 9e-3 0.542 2e-3 1-0.37 0.998-0.991-0.014-5.55-8e-3 -11.1-8e-3 -16.649 0-0.574-0.353-0.928-0.928-0.928h-30.674c-0.578 0-0.931 0.352-0.931 0.925 0 5.572 0 11.146 1e-3 16.718 0 0.562 0.355 0.916 0.915 0.916h15.325zm0.014 1.721h-15.352c-1.488 0-2.637-1.143-2.637-2.623v-16.767c0-1.465 1.152-2.61 2.625-2.61h30.75c1.473 0 2.625 1.145 2.625 2.61v16.768c0 1.479-1.149 2.622-2.637 2.622h-15.374z" mask="url(#markdownsupport-b)"/>
   <g aria-label="6502">
    <path d="m7.1484 11.044q-0.52604 0-0.79167 0.34375-0.26042 0.33854-0.26042 1.0208t0.26042 1.026q0.26563 0.33854 0.79167 0.33854 0.53125 0 0.79167-0.33854 0.26563-0.34375 0.26563-1.026t-0.26563-1.0208q-0.26042-0.34375-0.79167-0.34375zm2.4792-3.7344v1.4375q-0.49479-0.23438-0.93229-0.34375-0.4375-0.11458-0.85417-0.11458-0.89584 0-1.3958 0.5-0.5 0.49479-0.58334 1.474 0.34375-0.25521 0.74479-0.38021 0.40104-0.13021 0.875-0.13021 1.1927 0 1.9219 0.69792 0.73438 0.69792 0.73438 1.8281 0 1.25-0.81771 2.0052-0.81771 0.75-2.1927 0.75-1.5156 0-2.349-1.0208-0.82813-1.026-0.82813-2.9063 0-1.9271 0.96875-3.0261 0.97396-1.1042 2.6667-1.1042 0.53646 0 1.0417 0.083334 0.50521 0.083334 1 0.25z" style="font-variant-caps:normal;font-variant-east-asian:normal;font-variant-ligatures:normal;font-variant-numeric:normal"/>
    <path d="m11.841 7.1068h4.9844v1.474h-3.3854v1.2031q0.22917-0.0625 0.45833-0.09375 0.23438-0.036459 0.48438-0.036459 1.4219 0 2.2135 0.71354 0.79167 0.70834 0.79167 1.9792 0 1.2604-0.86459 1.974-0.85938 0.71354-2.3906 0.71354-0.66146 0-1.3125-0.13021-0.64584-0.125-1.2865-0.38542v-1.5781q0.63542 0.36458 1.2031 0.54688 0.57292 0.18229 1.0781 0.18229 0.72917 0 1.1458-0.35417 0.42188-0.35938 0.42188-0.96875 0-0.61459-0.42188-0.96875-0.41667-0.35417-1.1458-0.35417-0.43229 0-0.92188 0.11458-0.48958 0.10938-1.0521 0.34375z" style="font-variant-caps:normal;font-variant-east-asian:normal;font-variant-ligatures:normal;font-variant-numeric:normal"/>
    <path d="m23.039 10.987q0-1.4583-0.27604-2.0521-0.27083-0.59896-0.91667-0.59896-0.64584 0-0.92188 0.59896-0.27604 0.59375-0.27604 2.0521 0 1.474 0.27604 2.0781 0.27604 0.60417 0.92188 0.60417 0.64063 0 0.91667-0.60417 0.27604-0.60417 0.27604-2.0781zm2.0052 0.01563q0 1.9323-0.83334 2.9844-0.83334 1.0469-2.3646 1.0469-1.5365 0-2.3698-1.0469-0.83334-1.0521-0.83334-2.9844 0-1.9375 0.83334-2.9844 0.83334-1.0521 2.3698-1.0521 1.5313 0 2.3646 1.0521 0.83334 1.0469 0.83334 2.9844z" style="font-variant-caps:normal;font-variant-east-asian:normal;font-variant-ligatures:normal;font-variant-numeric:normal"/>
    <path d="m28.628 13.409h3.4219v1.474h-5.6511v-1.474l2.8386-2.5052q0.38021-0.34375 0.5625-0.67188 0.18229-0.32813 0.18229-0.68229 0-0.54688-0.36979-0.88021-0.36458-0.33333-0.97396-0.33333-0.46875 0-1.026 0.20313-0.55729 0.19792-1.1927 0.59375v-1.7083q0.67708-0.22396 1.3385-0.33854 0.66146-0.11979 1.2969-0.11979 1.3958 0 2.1667 0.61459 0.77604 0.61459 0.77604 1.7135 0 0.63542-0.32813 1.1875-0.32813 0.54688-1.3802 1.4688z" style="font-variant-caps:normal;font-variant-east-asian:normal;font-variant-ligatures:normal;font-variant-numeric:normal"/>
   </g>
   <g transform="translate(.17268 4)" stroke-width=".48012">
    <rect x="3.0575" y="-9" width="1.744" height="5.2121"/>
    <rect x="8.6166" y="-9" width="1.744" height="5.2121"/>
    <rect x="14.176" y="-9" width="1.744" height="5.2121"/>
    <rect x="19.735" y="-9" width="1.744" height="5.2121"/>
    <rect x="25.294" y="-9" width="1.744" height="5.2121"/>
    <rect x="30.853" y="-9" width="1.744" height="5.2121"/>
   </g>
   <g transform="translate(.17268 30.933)" stroke-width=".48012">
    <rect x="3.0575" y="-9" width="1.744" height="5.2121"/>
    <rect x="8.6166" y="-9" width="1.744" height="5.2121"/>
    <rect x="14.176" y="-9" width="1.744" height="5.2121"/>
    <rect x="19.735" y="-9" width="1.744" height="5.2121"/>
    <rect x="25.294" y="-9" width="1.744" height="5.2121"/>
    <rect x="30.853" y="-9" width="1.744" height="5.2121"/>
   </g>
  </g>
 </g>
</svg>
