<svg xmlns="http://www.w3.org/2000/svg" width="16" height="16" fill="none" viewBox="0 0 16 16"><path fill="#fff4eb" stroke="#e66d17" d="M3.75 2.25h6.5l3 3v7.5a1 1 0 0 1-1 1h-8.5a1 1 0 0 1-1-1v-9.5a1 1 0 0 1 1-1z"/><path stroke="#e66d17" stroke-linecap="round" d="M10.25 2.25v3h3"/><path fill="#e66d17" d="M5.48 10.6Q5.48 10.3 5.64 10.17Q5.8 10.04 6.03 10.04Q6.26 10.04 6.42 10.17Q6.59 10.3 6.59 10.6Q6.59 10.9 6.42 11.04Q6.26 11.17 6.03 11.17Q5.8 11.17 5.64 11.04Q5.48 10.9 5.48 10.6ZM10.52 9.88Q10.52 10.5 10.07 10.82Q9.63 11.14 8.8 11.14Q8.37 11.14 8.05 11.08Q7.73 11.02 7.46 10.89L7.46 10.13Q7.75 10.27 8.13 10.37Q8.5 10.47 8.83 10.47Q9.27 10.47 9.46 10.33Q9.65 10.2 9.65 9.97Q9.65 9.83 9.57 9.73Q9.49 9.62 9.29 9.5Q9.08 9.39 8.67 9.23Q8.28 9.07 8.01 8.91Q7.73 8.75 7.6 8.53Q7.46 8.31 7.46 7.96Q7.46 7.4 7.9 7.12Q8.34 6.83 9.06 6.83Q9.44 6.83 9.78 6.91Q10.12 6.98 10.45 7.13L10.17 7.79Q9.89 7.67 9.6 7.59Q9.32 7.51 9.03 7.51Q8.33 7.51 8.33 7.92Q8.33 8.06 8.42 8.16Q8.5 8.26 8.71 8.37Q8.93 8.47 9.31 8.62Q9.68 8.76 9.95 8.92Q10.22 9.08 10.37 9.3Q10.52 9.53 10.52 9.88Z"/></svg>