<?xml version="1.0" encoding="UTF-8" standalone="no"?>
<svg
   xmlns:dc="http://purl.org/dc/elements/1.1/"
   xmlns:cc="http://creativecommons.org/ns#"
   xmlns:rdf="http://www.w3.org/1999/02/22-rdf-syntax-ns#"
   xmlns:svg="http://www.w3.org/2000/svg"
   xmlns="http://www.w3.org/2000/svg"
   xmlns:sodipodi="http://sodipodi.sourceforge.net/DTD/sodipodi-0.dtd"
   xmlns:inkscape="http://www.inkscape.org/namespaces/inkscape"
   width="16"
   height="16"
   viewBox="0 0 16 16"
   version="1.1"
   id="svg14"
   sodipodi:docname="assembly.svg"
   inkscape:version="1.0.2 (e86c870879, 2021-01-15)">
  <metadata
     id="metadata20">
    <rdf:RDF>
      <cc:Work
         rdf:about="">
        <dc:format>image/svg+xml</dc:format>
        <dc:type
           rdf:resource="http://purl.org/dc/dcmitype/StillImage" />
      </cc:Work>
    </rdf:RDF>
  </metadata>
  <defs
     id="defs18" />
  <sodipodi:namedview
     pagecolor="#ffffff"
     bordercolor="#666666"
     borderopacity="1"
     objecttolerance="10"
     gridtolerance="10"
     guidetolerance="10"
     inkscape:pageopacity="0"
     inkscape:pageshadow="2"
     inkscape:window-width="832"
     inkscape:window-height="480"
     id="namedview16"
     showgrid="false"
     inkscape:zoom="15.75"
     inkscape:cx="7.5271444"
     inkscape:cy="6.0098879"
     inkscape:window-x="26"
     inkscape:window-y="23"
     inkscape:window-maximized="0"
     inkscape:current-layer="g12" />
  <g
     fill="none"
     fill-rule="evenodd"
     id="g12">
    <polygon
       fill="#F4AF3D"
       fill-opacity=".7"
       points="1 16 16 16 16 9 1 9"
       id="polygon2" />
    <polygon
       fill="#9AA7B0"
       fill-opacity=".8"
       points="7 1 3 5 7 5"
       id="polygon4" />
    <polygon
       fill="#9AA7B0"
       fill-opacity=".8"
       points="8 1 8 6 3 6 3 8 13 8 13 1"
       id="polygon6" />
    <path
       fill="#231f20"
       fill-opacity="0.7"
       d="M 2.655306,11.501526 C 2.655306,11.133057 2.966538,11 3.527538,11 c 0.00533,0 0.3903333,0 1.155,0 v -1 c -0.7373333,0 -1.1173333,0 -1.14,0 -1.0819997,0 -1.8599987,0.459167 -1.8599987,1.45 0,0.864526 0.4195551,1.240491 1.4712511,1.466077 0.7703363,0.165235 1.0249026,0.312552 1.0249026,0.631923 0,0.319371 -0.3577273,0.452 -1.0249026,0.452 -0.010667,0 -0.4010841,0 -1.1712515,0 v 1 c 0.7755007,0 1.1659182,0 1.1712515,0 2.0287476,0 2.0287476,-1 2.0287476,-1.452 0,-0.631923 -0.4797363,-1.127285 -1.3413086,-1.401149 C 2.9796571,11.872986 2.655306,11.869995 2.655306,11.501526 Z"
       id="path10" />
  </g>
</svg>
