<?xml version="1.0" encoding="UTF-8"?>
<svg width="12" height="12" version="1.1" viewBox="0 0 12 12" xmlns="http://www.w3.org/2000/svg" xmlns:cc="http://creativecommons.org/ns#" xmlns:dc="http://purl.org/dc/elements/1.1/" xmlns:rdf="http://www.w3.org/1999/02/22-rdf-syntax-ns#">
 <metadata>
  <rdf:RDF>
   <cc:Work rdf:about="">
    <dc:format>image/svg+xml</dc:format>
    <dc:type rdf:resource="http://purl.org/dc/dcmitype/StillImage"/>
    <dc:title/>
   </cc:Work>
  </rdf:RDF>
 </metadata>
 <g fill-rule="evenodd">
  <circle cx="4" cy="6" r="4" fill="#62b543" fill-opacity=".6"/>
  <path d="m10 3h2l-2.5-3-2.5 3h2v9h1z" fill="#6e6e6e"/>
  <path d="m3.7634 5.2139c-0.0983 0.057077-0.17948 0.13508-0.24226 0.23021-0.060248 0.09386-0.10464 0.20104-0.13128 0.31836-0.026636 0.11606-0.039954 0.23465-0.039954 0.35388 0 0.25495 0.046296 0.43632 0.14016 0.55428 0.096397 0.1205 0.22641 0.18201 0.38559 0.18201 0.10464 0 0.1966-0.024099 0.27397-0.072298 0.076103-0.046296 0.13952-0.11289 0.18772-0.19723 0.046296-0.080542 0.082445-0.17757 0.10654-0.28919 0.024099-0.10781 0.039954-0.23021 0.045662-0.36212l0.043759-0.75723-0.026636-0.00634c-0.072932-0.017123-0.12811-0.026002-0.19026-0.032978-0.062151-0.00634-0.1243-0.00951-0.18899-0.00951-0.14206 0-0.26382 0.029173-0.36403 0.088153zm-2.2996 0.78608c0-2.5365 2.3245-2.5365 2.7359-2.5365 0.21243 0 2.3364 0.054115 2.3364 2.2552 0 1.555-0.96714 1.5493-1.1606 1.5493-0.31506-0.019026-0.54273-0.14352-0.68302-0.37348-0.26033 0.24898-0.51486 0.37348-0.76357 0.37348-0.51335 0-1.198-0.050038-1.198-1.2683 0-1.0652 0.92328-1.2684 1.2684-1.2684 0.097031 0 1.1067 0.034881 1.1568 0.050101l-0.050735 1.3375c-0.068493 0.44689 0.034881 0.67034 0.31012 0.67034 0.45849 0 0.52448-0.92719 0.52448-1.0769 0-1.6741-1.4916-1.777-1.7402-1.777-0.34563 0-2.1388 0.067092-2.1388 2.0646 0 0.37 0 2.0583 1.868 2.0583 0.12747 0 1.1764-0.12879 1.4415-0.26509v0.47564c-0.1947 0.079274-0.67795 0.26763-1.4358 0.26763-0.47079 0-2.4708 0-2.4708-2.5365z" fill="#231f20" fill-opacity=".7" stroke-width=".63419"/>
 </g>
</svg>
