<svg xmlns="http://www.w3.org/2000/svg" width="16" height="16" fill="none" viewBox="0 0 16 16"><path fill="#e7effd" d="M1.5,8c0,-3.58985 2.91015,-6.5 6.5,-6.5c2.11465,0 3.99344,1.00981 5.18047,2.57351c-0.23672,0.08357 -0.48141,0.22394 -0.63251,0.3438l-2.05216,2.06019c-0.17673,0.22974 -0.41191,0.68294 -0.41191,0.98666c0,0.3015 0.19849,0.77121 0.39454,0.96877c0.19727,0.19878 0.66937,0.40044 0.97067,0.40044c0.20307,0 0.47876,-0.10733 0.7101,-0.2357l-0.00045,2.0129c0.03609,0.3029 0.19154,0.77827 0.39403,0.98378c0.13277,0.13475 0.38101,0.2651 0.62157,0.3402c-1.18737,1.55912 -3.06334,2.56546 -5.17435,2.56546c-3.58985,0 -6.5,-2.91015 -6.5,-6.5z"/><path fill="#3574f0" d="M7.3 5.95Q7.3 5.55 7.5 5.39Q7.7 5.23 8 5.23Q8.29 5.23 8.5 5.39Q8.7 5.55 8.7 5.95Q8.7 6.33 8.5 6.5Q8.29 6.67 8 6.67Q7.7 6.67 7.5 6.5Q7.3 6.33 7.3 5.95ZM7.3 10.05Q7.3 9.66 7.5 9.5Q7.7 9.34 8 9.34Q8.29 9.34 8.5 9.5Q8.7 9.66 8.7 10.05Q8.7 10.43 8.5 10.6Q8.29 10.77 8 10.77Q7.7 10.77 7.5 10.6Q7.3 10.43 7.3 10.05Z"/><path fill="#6e6e6e" d="M8.00122 13.6797C8.44653 13.6797 8.75122 13.375 8.75122 12.9219V5.57812L8.69653 4.26562L10.384 6.15625L11.5481 7.29688C11.6809 7.4375 11.8684 7.51562 12.0793 7.51562C12.4856 7.51562 12.7903 7.21094 12.7903 6.79688C12.7903 6.59375 12.72 6.41406 12.5559 6.25L8.56372 2.24219C8.40747 2.08594 8.21216 2 8.00122 2C7.7981 2 7.60278 2.08594 7.44653 2.24219L3.45435 6.25C3.2981 6.41406 3.21997 6.59375 3.21997 6.79688C3.21997 7.21094 3.52466 7.51562 3.93091 7.51562C4.14185 7.51562 4.32935 7.4375 4.46216 7.29688L5.62622 6.15625L7.31372 4.25781L7.25903 5.57812V12.9219C7.25903 13.375 7.56372 13.6797 8.00122 13.6797Z" data-badge-layer="0" transform="translate(9.43 3.973)scale(.5137)"/></svg>