<svg xmlns="http://www.w3.org/2000/svg" width="16" height="16" fill="none" viewBox="0 0 16 16"><defs><clipPath id="a"><path d="M0,16v-16h16v5.88696l-1.46255,-1.46828c-0.23244,-0.18437 -0.68771,-0.41869 -0.99744,-0.41869c-0.30571,0 -0.7596,0.23294 -0.99205,0.41731l-2.05216,2.06019c-0.17673,0.22974 -0.41191,0.68294 -0.41191,0.98666c0,0.3015 0.19849,0.77121 0.39454,0.96877c0.19727,0.19878 0.66937,0.40044 0.97067,0.40044c0.20307,0 0.47876,-0.10733 0.7101,-0.2357l-0.00045,2.0129c0.03609,0.3029 0.19154,0.77827 0.39403,0.98378c0.20493,0.20798 0.68497,0.40551 0.98723,0.40551c0.30257,0 0.7822,-0.19541 0.98813,-0.40286c0.20471,-0.20622 0.36105,-0.68352 0.39714,-0.98642v-2.00297c0.22744,0.12529 0.50048,0.22577 0.70963,0.22577c0.10684,0 0.23516,-0.02536 0.36509,-0.06695v7.23358z"/></clipPath></defs><g clip-path="url(#a)"><path fill="#faf5ff" d="M12.9498 3.05025C15.6835 5.78392 15.6835 10.2161 12.9498 12.9497C10.2162 15.6834 5.784 15.6834 3.05033 12.9497C0.316663 10.2161 0.316663 5.78392 3.05033 3.05025C5.784 0.316582 10.2162 0.316583 12.9498 3.05025Z"/><path fill="#834df0" fill-rule="evenodd" d="M14.9144 6.90481L13.9266 7.06045C13.736 5.85124 13.1756 4.69027 12.2427 3.75736C11.3098 2.82445 10.1488 2.26404 8.93963 2.07352L9.09527 1.0857C10.5063 1.30802 11.8624 1.96287 12.9498 3.05025C14.0372 4.13763 14.6921 5.49375 14.9144 6.90481ZM6.90489 1.0857L7.06053 2.07352C5.85132 2.26404 4.69035 2.82445 3.75744 3.75736C2.82453 4.69027 2.26412 5.85124 2.0736 7.06045L1.08579 6.90481C1.30811 5.49375 1.96295 4.13763 3.05033 3.05025C4.13771 1.96287 5.49383 1.30802 6.90489 1.0857ZM1.08579 9.09519C1.30811 10.5063 1.96295 11.8624 3.05033 12.9497C4.13771 14.0371 5.49383 14.692 6.90489 14.9143L7.06053 13.9265C5.85132 13.736 4.69035 13.1755 3.75744 12.2426C2.82453 11.3097 2.26412 10.1488 2.0736 8.93955L1.08579 9.09519ZM9.09527 14.9143L8.93963 13.9265C10.1488 13.736 11.3098 13.1755 12.2427 12.2426C13.1756 11.3097 13.736 10.1488 13.9266 8.93955L14.9144 9.09519C14.6921 10.5063 14.0372 11.8624 12.9498 12.9497C11.8624 14.0371 10.5063 14.692 9.09527 14.9143Z" clip-rule="evenodd"/><path fill="#834df0" d="M7.72 4.5Q9.07 4.5 9.69 5.06Q10.32 5.61 10.32 6.61Q10.32 7.22 10.06 7.73Q9.79 8.25 9.2 8.56Q8.6 8.88 7.58 8.88L6.83 8.88L6.83 11.5L5.68 11.5L5.68 4.5ZM7.64 5.45L6.83 5.45L6.83 7.92L7.46 7.92Q8.27 7.92 8.71 7.63Q9.15 7.34 9.15 6.66Q9.15 6.05 8.78 5.75Q8.42 5.45 7.64 5.45Z"/></g><path fill="#6e6e6e" d="M8.00122 13.6797C8.44653 13.6797 8.75122 13.375 8.75122 12.9219V5.57812L8.69653 4.26562L10.384 6.15625L11.5481 7.29688C11.6809 7.4375 11.8684 7.51562 12.0793 7.51562C12.4856 7.51562 12.7903 7.21094 12.7903 6.79688C12.7903 6.59375 12.72 6.41406 12.5559 6.25L8.56372 2.24219C8.40747 2.08594 8.21216 2 8.00122 2C7.7981 2 7.60278 2.08594 7.44653 2.24219L3.45435 6.25C3.2981 6.41406 3.21997 6.59375 3.21997 6.79688C3.21997 7.21094 3.52466 7.51562 3.93091 7.51562C4.14185 7.51562 4.32935 7.4375 4.46216 7.29688L5.62622 6.15625L7.31372 4.25781L7.25903 5.57812V12.9219C7.25903 13.375 7.56372 13.6797 8.00122 13.6797Z" data-badge-layer="0" transform="translate(9.43 3.973)scale(.5137)"/></svg>