<svg xmlns="http://www.w3.org/2000/svg" width="16" height="16" fill="none" viewBox="0 0 16 16"><path fill="#253627" d="M1.5,8c0,-3.58985 2.91015,-6.5 6.5,-6.5c2.11465,0 3.99344,1.00981 5.18047,2.57351c-0.23672,0.08357 -0.48141,0.22394 -0.63251,0.3438l-2.05216,2.06019c-0.17673,0.22974 -0.41191,0.68294 -0.41191,0.98666c0,0.3015 0.19849,0.77121 0.39454,0.96877c0.19727,0.19878 0.66937,0.40044 0.97067,0.40044c0.20307,0 0.47876,-0.10733 0.7101,-0.2357l-0.00045,2.0129c0.03609,0.3029 0.19154,0.77827 0.39403,0.98378c0.13277,0.13475 0.38101,0.2651 0.62157,0.3402c-1.18737,1.55912 -3.06334,2.56546 -5.17435,2.56546c-3.58985,0 -6.5,-2.91015 -6.5,-6.5z"/><path fill="#57965c" d="M11.44,9.25c-0.14,0.24 -0.32,0.42667 -0.54,0.56c-0.21333,0.14 -0.46667,0.21 -0.76,0.21c-0.26667,0 -0.49,-0.07 -0.67,-0.21c-0.18,-0.14667 -0.29667,-0.32333 -0.35,-0.53h-0.06c-0.12667,0.20667 -0.30333,0.38333 -0.53,0.53c-0.22667,0.14 -0.5,0.21 -0.82,0.21c-0.54667,0 -0.96667,-0.17 -1.26,-0.51c-0.28667,-0.34 -0.43,-0.78667 -0.43,-1.34c0,-0.44 0.08667,-0.82667 0.26,-1.16c0.18,-0.33333 0.43667,-0.59333 0.77,-0.78c0.32667,-0.19333 0.71333,-0.29 1.16,-0.29c0.3,0 0.59667,0.02667 0.89,0.08c0.3,0.05333 0.53667,0.11 0.71,0.17l-0.09,1.97c-0.00667,0.08667 -0.01333,0.16333 -0.02,0.23c0,0.06667 0,0.11333 0,0.14c0,0.30667 0.05,0.51333 0.15,0.62c0.1,0.1 0.21667,0.15 0.35,0.15c0.18,0 0.33,-0.07667 0.45,-0.23c0.08516,-0.10757 0.15526,-0.23775 0.21028,-0.39053c0.19764,0.09061 0.42003,0.15389 0.58881,0.15389c0.06379,0 0.13475,-0.01059 0.20925,-0.0291c-0.05878,0.15908 -0.13156,0.30766 -0.21835,0.44573zM10.67,6.09c-0.23333,-0.40667 -0.55333,-0.72 -0.96,-0.94c-0.40667,-0.21333 -0.87333,-0.32 -1.4,-0.32c-0.71333,0 -1.31667,0.14667 -1.81,0.44c-0.49333,0.3 -0.86667,0.70667 -1.12,1.22c-0.26,0.52 -0.39,1.11333 -0.39,1.78c0,0.93333 0.24667,1.65 0.74,2.15c0.49333,0.5 1.20667,0.75 2.14,0.75c0.38,0 0.76333,-0.04333 1.15,-0.13c0.38667,-0.08667 0.73667,-0.19 1.05,-0.31v0.78c-0.3,0.12 -0.63333,0.22 -1,0.3c-0.36667,0.07333 -0.76,0.11 -1.18,0.11c-0.78667,0 -1.46333,-0.14333 -2.03,-0.43c-0.56,-0.28667 -0.98667,-0.7 -1.28,-1.24c-0.3,-0.54 -0.45,-1.19 -0.45,-1.95c0,-0.60667 0.09667,-1.16667 0.29,-1.68c0.19333,-0.51333 0.47333,-0.96 0.84,-1.34c0.36,-0.38 0.79667,-0.67667 1.31,-0.89c0.51333,-0.20667 1.09333,-0.31 1.74,-0.31c0.68667,0 1.3,0.14 1.84,0.42c0.50106,0.26932 0.90208,0.64161 1.20307,1.11687l-0.60815,0.61053c-0.02352,-0.04681 -0.0485,-0.09261 -0.07493,-0.13739zM6.93,8.18c0,0.39333 0.07667,0.68 0.23,0.86c0.16,0.17333 0.38,0.26 0.66,0.26c0.34667,0 0.59667,-0.12667 0.75,-0.38c0.15333,-0.26 0.24333,-0.6 0.27,-1.02l0.06,-1.16c-0.08667,-0.02 -0.18667,-0.03667 -0.3,-0.05c-0.11333,-0.01333 -0.23,-0.02 -0.35,-0.02c-0.32,0 -0.57667,0.07333 -0.77,0.22c-0.2,0.14 -0.34333,0.32667 -0.43,0.56c-0.08,0.23333 -0.12,0.47667 -0.12,0.73z"/><path fill="#afb1b3" d="M8.00122 13.6797C8.44653 13.6797 8.75122 13.375 8.75122 12.9219V5.57812L8.69653 4.26562L10.384 6.15625L11.5481 7.29688C11.6809 7.4375 11.8684 7.51562 12.0793 7.51562C12.4856 7.51562 12.7903 7.21094 12.7903 6.79688C12.7903 6.59375 12.72 6.41406 12.5559 6.25L8.56372 2.24219C8.40747 2.08594 8.21216 2 8.00122 2C7.7981 2 7.60278 2.08594 7.44653 2.24219L3.45435 6.25C3.2981 6.41406 3.21997 6.59375 3.21997 6.79688C3.21997 7.21094 3.52466 7.51562 3.93091 7.51562C4.14185 7.51562 4.32935 7.4375 4.46216 7.29688L5.62622 6.15625L7.31372 4.25781L7.25903 5.57812V12.9219C7.25903 13.375 7.56372 13.6797 8.00122 13.6797Z" data-badge-layer="0" transform="translate(9.43 3.973)scale(.5137)"/></svg>