<svg xmlns="http://www.w3.org/2000/svg" width="16" height="16" fill="none" viewBox="0 0 16 16"><defs><clipPath id="a"><path d="M0,16v-16h16v9.78804c-0.56794,-0.45868 -1.37211,-0.78822 -2.0229,-0.78821c-0.69584,0.00001 -1.567,0.37675 -2.13727,0.88528l-0.47655,0.47654c-0.12123,0.16726 -0.26538,0.44212 -0.33083,0.67158c-0.22946,0.06544 -0.50432,0.20959 -0.67158,0.33081l-0.47572,0.47571c-0.50857,0.57029 -0.88534,1.4415 -0.88534,2.13737c0,0.6508 0.32955,1.45494 0.78825,2.02288zM16,16l-1.72572,0l0.36168,-0.36167c0.12116,-0.16719 0.26526,-0.44191 0.33075,-0.67133c0.22937,-0.06548 0.50402,-0.20952 0.67119,-0.33066l0.3621,-0.36212z"/></clipPath></defs><g clip-path="url(#a)"><path fill="#303030" stroke="#9e9e9e" d="M3.75 2.25h6.5l3 3v7.5a1 1 0 0 1-1 1h-8.5a1 1 0 0 1-1-1v-9.5a1 1 0 0 1 1-1z"/><path stroke="#9e9e9e" stroke-linecap="round" d="M10.25 2.25v3h3"/></g><g data-badge-layer="0" transform="translate(8.99 8.99)scale(.5012)"><path fill="#ced0d6" d="M7.097 3.197C8.672 1.621 11.228 1.621 12.804 3.197 14.38 4.772 14.38 7.328 12.804 8.904L11.853 9.854C11.658 10.05 11.341 10.05 11.146 9.854 10.951 9.659 10.951 9.343 11.146 9.147L12.097 8.197C13.282 7.011 13.282 5.089 12.096 3.904 10.911 2.718 8.989 2.718 7.804 3.904L6.853 4.854C6.658 5.05 6.341 5.05 6.146 4.854 5.951 4.659 5.951 4.343 6.146 4.147L7.097 3.197ZM4.853 6.147C5.048 6.343 5.048 6.659 4.853 6.854L3.904 7.804C2.718 8.989 2.718 10.911 3.904 12.097 5.089 13.282 7.011 13.282 8.197 12.096L9.147 11.147C9.342 10.951 9.658 10.951 9.854 11.147 10.049 11.342 10.049 11.658 9.854 11.854L8.904 12.804C7.328 14.38 4.773 14.38 3.197 12.804 1.621 11.228 1.621 8.672 3.197 7.096L4.146 6.147C4.341 5.952 4.658 5.952 4.853 6.147Z"/><path fill="#ced0d6" d="M10.3536 6.35355C10.5488 6.15829 10.5488 5.84171 10.3536 5.64645C10.1583 5.45118 9.84171 5.45118 9.64645 5.64645L5.64645 9.64645C5.45118 9.84171 5.45118 10.1583 5.64645 10.3536C5.84171 10.5488 6.15829 10.5488 6.35355 10.3536L10.3536 6.35355Z"/></g></svg>