<svg xmlns="http://www.w3.org/2000/svg" width="16" height="16" fill="none" viewBox="0 0 16 16"><circle cx="8" cy="8" r="6.5" fill="#f2fcf3" stroke="#208a3c"/><path fill="#208a3c" d="M11.87 7.57Q11.87 8.03 11.76 8.46Q11.66 8.9 11.44 9.25Q11.23 9.61 10.9 9.81Q10.58 10.02 10.14 10.02Q9.74 10.02 9.47 9.81Q9.2 9.59 9.12 9.28L9.06 9.28Q8.87 9.59 8.53 9.81Q8.19 10.02 7.71 10.02Q6.89 10.02 6.45 9.51Q6.02 9 6.02 8.17Q6.02 7.51 6.28 7.01Q6.55 6.51 7.05 6.23Q7.54 5.94 8.21 5.94Q8.66 5.94 9.1 6.02Q9.55 6.1 9.81 6.19L9.72 8.16Q9.71 8.29 9.7 8.39Q9.7 8.49 9.7 8.53Q9.7 8.99 9.85 9.15Q10 9.3 10.2 9.3Q10.47 9.3 10.65 9.07Q10.84 8.83 10.93 8.44Q11.03 8.04 11.03 7.56Q11.03 6.7 10.67 6.09Q10.32 5.48 9.71 5.15Q9.1 4.83 8.31 4.83Q7.24 4.83 6.5 5.27Q5.76 5.72 5.38 6.49Q4.99 7.27 4.99 8.27Q4.99 9.67 5.73 10.42Q6.47 11.17 7.87 11.17Q8.44 11.17 9.02 11.04Q9.6 10.91 10.07 10.73L10.07 11.51Q9.62 11.69 9.07 11.81Q8.52 11.92 7.89 11.92Q6.71 11.92 5.86 11.49Q5.02 11.06 4.58 10.25Q4.13 9.44 4.13 8.3Q4.13 7.39 4.42 6.62Q4.71 5.85 5.26 5.28Q5.8 4.71 6.57 4.39Q7.34 4.08 8.31 4.08Q9.34 4.08 10.15 4.5Q10.95 4.93 11.41 5.71Q11.87 6.49 11.87 7.57ZM6.93 8.18Q6.93 8.77 7.16 9.04Q7.4 9.3 7.82 9.3Q8.34 9.3 8.57 8.92Q8.8 8.53 8.84 7.9L8.9 6.74Q8.77 6.71 8.6 6.69Q8.43 6.67 8.25 6.67Q7.77 6.67 7.48 6.89Q7.18 7.1 7.05 7.45Q6.93 7.8 6.93 8.18Z"/></svg>