<svg xmlns="http://www.w3.org/2000/svg" width="16" height="16" fill="none" viewBox="0 0 16 16"><rect width="12" height="12" x="2" y="2" fill="#402929" stroke="#db5c5c" rx="1.5"/><path fill="#db5c5c" d="M8.41 10.75Q7.28 10.75 6.63 10.09Q5.97 9.43 5.97 8.03Q5.97 7.07 6.29 6.45Q6.62 5.84 7.19 5.55Q7.77 5.25 8.52 5.25Q8.99 5.25 9.37 5.35Q9.76 5.44 10.03 5.57L9.7 6.47Q9.4 6.36 9.1 6.27Q8.79 6.19 8.51 6.19Q7.13 6.19 7.13 8.02Q7.13 8.9 7.47 9.35Q7.81 9.81 8.48 9.81Q8.91 9.81 9.26 9.71Q9.6 9.6 9.91 9.43L9.91 10.41Q9.61 10.58 9.26 10.67Q8.92 10.75 8.41 10.75Z"/></svg>