<svg xmlns="http://www.w3.org/2000/svg" width="16" height="16" fill="none" viewBox="0 0 16 16"><rect width="12" height="12" x="2" y="2" fill="#fff7f7" stroke="#db3b4b" rx="1.5"/><path fill="#db3b4b" d="M5.93 12.93Q5.72 12.93 5.53 12.9Q5.33 12.86 5.2 12.82L5.2 11.9Q5.34 11.95 5.47 11.98Q5.6 12 5.75 12Q6.39 12 6.6 11.05L7.64 6.13L6.79 6.13L6.89 5.61L7.82 5.26L7.92 4.81Q8.13 3.83 8.58 3.45Q9.02 3.07 9.78 3.07Q10.07 3.07 10.34 3.13Q10.6 3.19 10.8 3.28L10.5 4.12Q10.36 4.06 10.2 4.02Q10.04 3.98 9.86 3.98Q9.52 3.98 9.32 4.19Q9.11 4.4 9.02 4.86L8.93 5.27L10.02 5.27L9.85 6.13L8.75 6.13L7.68 11.2Q7.51 11.96 7.11 12.45Q6.72 12.93 5.93 12.93Z"/></svg>