<svg xmlns="http://www.w3.org/2000/svg" width="16" height="16" fill="none" viewBox="0 0 16 16"><rect width="12" height="12" x="2" y="2" fill="#303030" stroke="#9e9e9e" rx="1.5"/><path fill="#9e9e9e" d="M7.65 12.27Q6.57 12.27 6.11 11.92Q5.65 11.57 5.65 10.84L5.65 9.35Q5.65 8.87 5.34 8.66Q5.03 8.45 4.44 8.45L4.44 7.55Q5.03 7.55 5.34 7.34Q5.65 7.14 5.65 6.65L5.65 5.15Q5.65 4.42 6.12 4.07Q6.59 3.73 7.65 3.73L7.65 4.59Q7.19 4.6 6.93 4.78Q6.67 4.95 6.67 5.4L6.67 6.84Q6.67 7.79 5.59 7.97L5.59 8.02Q6.67 8.19 6.67 9.15L6.67 10.6Q6.67 11.05 6.93 11.23Q7.18 11.4 7.65 11.4ZM8.36 12.27L8.36 11.4Q8.81 11.39 9.07 11.22Q9.33 11.05 9.33 10.59L9.33 9.15Q9.33 8.2 10.41 8.03L10.41 7.97Q9.33 7.79 9.33 6.84L9.33 5.4Q9.33 4.95 9.07 4.77Q8.82 4.6 8.36 4.59L8.36 3.73Q9.43 3.73 9.89 4.08Q10.35 4.42 10.35 5.16L10.35 6.65Q10.35 7.13 10.66 7.34Q10.97 7.55 11.56 7.55L11.56 8.45Q10.97 8.45 10.66 8.66Q10.35 8.87 10.35 9.34L10.35 10.84Q10.35 11.58 9.88 11.93Q9.41 12.27 8.36 12.27Z"/></svg>