<svg xmlns="http://www.w3.org/2000/svg" width="16" height="16" fill="none" viewBox="0 0 16 16"><rect width="12" height="12" x="2" y="2" fill="#1a3230" stroke="#4db6ac" rx="1.5"/><path fill="#4db6ac" d="M10.24 9.6Q10.24 10.53 9.56 11.06Q8.89 11.6 7.71 11.6Q6.55 11.6 5.76 11.22L5.76 10.14Q6.19 10.33 6.71 10.48Q7.24 10.63 7.78 10.63Q8.45 10.63 8.78 10.37Q9.11 10.11 9.11 9.67Q9.11 9.2 8.73 8.94Q8.35 8.67 7.59 8.36Q7.13 8.18 6.73 7.92Q6.33 7.67 6.09 7.28Q5.85 6.88 5.85 6.29Q5.85 5.4 6.48 4.9Q7.11 4.4 8.15 4.4Q8.7 4.4 9.18 4.52Q9.67 4.64 10.14 4.84L9.78 5.77Q9.34 5.59 8.94 5.49Q8.54 5.38 8.11 5.38Q7.57 5.38 7.28 5.62Q6.98 5.87 6.98 6.27Q6.98 6.58 7.13 6.79Q7.28 6.99 7.6 7.16Q7.92 7.34 8.42 7.55Q9 7.79 9.4 8.05Q9.81 8.31 10.02 8.68Q10.24 9.05 10.24 9.6Z"/></svg>