<svg xmlns="http://www.w3.org/2000/svg" width="16" height="16" fill="none" viewBox="0 0 16 16"><path stroke="#00796b" stroke-linecap="round" d="M13 10V3.5C13 2.67 12.33 2 11.5 2H5"/><rect width="9" height="9" x="2" y="5" fill="#e0f2f1" stroke="#00796b" rx="1.5"/><path fill="#00796b" d="M8.1 10.64Q8.1 11.31 7.62 11.69Q7.14 12.07 6.29 12.07Q5.46 12.07 4.9 11.8L4.9 11.03Q5.2 11.16 5.58 11.27Q5.96 11.38 6.35 11.38Q6.82 11.38 7.06 11.19Q7.29 11.01 7.29 10.69Q7.29 10.36 7.02 10.17Q6.75 9.98 6.21 9.76Q5.88 9.63 5.59 9.45Q5.31 9.26 5.14 8.98Q4.96 8.7 4.96 8.28Q4.96 7.65 5.41 7.29Q5.86 6.93 6.61 6.93Q7 6.93 7.35 7.02Q7.69 7.1 8.03 7.25L7.77 7.91Q7.46 7.78 7.17 7.7Q6.88 7.63 6.58 7.63Q6.19 7.63 5.98 7.8Q5.77 7.98 5.77 8.26Q5.77 8.49 5.88 8.63Q5.99 8.78 6.21 8.9Q6.44 9.03 6.8 9.18Q7.21 9.35 7.5 9.54Q7.79 9.72 7.95 9.99Q8.1 10.25 8.1 10.64Z"/></svg>